<svg xmlns="http://www.w3.org/2000/svg" width="200" height="200" viewBox="0 0 200 200">
  <style>
    .st0{fill:#F59E0B;}
    .st1{fill:#3B82F6;}
    .st2{fill:#E5E7EB;}
    .st3{fill:#1F2937;}
  </style>
  <circle class="st2" cx="100" cy="100" r="90"/>
  <path class="st1" d="M100,20c44.1,0,80,35.9,80,80s-35.9,80-80,80s-80-35.9-80-80S55.9,20,100,20 M100,10C50.3,10,10,50.3,10,100s40.3,90,90,90s90-40.3,90-90S149.7,10,100,10L100,10z"/>
  <path class="st3" d="M100,55c-8.3,0-15,6.7-15,15s6.7,15,15,15s15-6.7,15-15S108.3,55,100,55z"/>
  <path class="st3" d="M125,105H75c-2.8,0-5,2.2-5,5v15c0,13.8,11.2,25,25,25h10c13.8,0,25-11.2,25-25v-15C130,107.2,127.8,105,125,105z"/>
  <path class="st0" d="M145,60l-10,10l10,10l10-10L145,60z"/>
  <path class="st0" d="M55,60l-10,10l10,10l10-10L55,60z"/>
  <path class="st1" d="M100,150v-20"/>
  <path class="st1" d="M100,150h20"/>
  <path class="st1" d="M100,150h-20"/>
  <circle class="st0" cx="100" cy="150" r="5"/>
</svg>
